<?xml version="1.0" encoding="UTF-8" standalone="no"?>
<!-- Generator: Adobe Illustrator 18.1.1, SVG Export Plug-In . SVG Version: 6.00 Build 0)  -->

<svg
   xmlns:dc="http://purl.org/dc/elements/1.1/"
   xmlns:cc="http://creativecommons.org/ns#"
   xmlns:rdf="http://www.w3.org/1999/02/22-rdf-syntax-ns#"
   xmlns:svg="http://www.w3.org/2000/svg"
   xmlns="http://www.w3.org/2000/svg"
   xmlns:sodipodi="http://sodipodi.sourceforge.net/DTD/sodipodi-0.dtd"
   xmlns:inkscape="http://www.inkscape.org/namespaces/inkscape"
   version="1.1"
   id="Capa_1"
   x="0px"
   y="0px"
   viewBox="0 0 28.3 28.3"
   style="enable-background:new 0 0 28.3 28.3;"
   xml:space="preserve"
   sodipodi:docname="camera.svg"
   inkscape:version="0.92.2 (5c3e80d, 2017-08-06)"><metadata
     id="metadata8919"><rdf:RDF><cc:Work
         rdf:about=""><dc:format>image/svg+xml</dc:format><dc:type
           rdf:resource="http://purl.org/dc/dcmitype/StillImage" /><dc:title></dc:title></cc:Work></rdf:RDF></metadata><defs
     id="defs8917" /><sodipodi:namedview
     pagecolor="#ffffff"
     bordercolor="#666666"
     borderopacity="1"
     objecttolerance="10"
     gridtolerance="10"
     guidetolerance="10"
     inkscape:pageopacity="0"
     inkscape:pageshadow="2"
     inkscape:window-width="640"
     inkscape:window-height="480"
     id="namedview8915"
     showgrid="false"
     inkscape:zoom="8.3392228"
     inkscape:cx="14.15"
     inkscape:cy="14.15"
     inkscape:window-x="0"
     inkscape:window-y="0"
     inkscape:window-maximized="0"
     inkscape:current-layer="Capa_1"
     inkscape:pagecheckerboard="true" /><g
     id="g8882"
     style="fill:#ffffff"><g
       id="g8880"
       style="fill:#ffffff"><path
         style="fill:#ffffff"
         d="M8.495,3.628c0,0-3.556,1.322-5.656,6.294l11.585-2.19L8.495,3.628z"
         id="path8862" /><path
         style="fill:#ffffff"
         d="M2.664,10.631c0,0-1.568,3.455,0.481,8.448l6.612-9.763L2.664,10.631z"
         id="path8864" /><path
         style="fill:#ffffff"
         d="M3.588,19.571c0,0,1.322,3.556,6.294,5.656L7.693,13.64L3.588,19.571z"
         id="path8866" /><path
         style="fill:#ffffff"
         d="M10.591,25.401c0,0,3.455,1.567,8.448-0.481l-9.763-6.61L10.591,25.401z"
         id="path8868" /><path
         style="fill:#ffffff"
         d="M19.722,24.629c0,0,3.557-1.322,5.656-6.296l-11.586,2.189L19.722,24.629z"
         id="path8870" /><path
         style="fill:#ffffff"
         d="M25.071,9.177l-6.61,9.763l7.093-1.316C25.554,17.625,27.12,14.17,25.071,9.177z"
         id="path8872" /><path
         style="fill:#ffffff"
         d="M24.628,8.685c0,0-1.322-3.556-6.295-5.655l2.189,11.585L24.628,8.685z"
         id="path8874" /><path
         style="fill:#ffffff"
         d="M17.624,2.855c0,0-3.453-1.568-8.447,0.482l9.764,6.61L17.624,2.855z"
         id="path8876" /><path
         style="fill:#ffffff"
         d="M14.151,0C6.336,0,0,6.336,0,14.15C0,21.963,6.335,28.3,14.151,28.3    c7.813,0,14.149-6.338,14.149-14.15C28.301,6.336,21.965,0,14.151,0z M14.151,27.206c-7.199,0-13.057-5.857-13.057-13.056    S6.952,1.094,14.151,1.094c7.197,0,13.055,5.857,13.055,13.056C27.206,21.349,21.348,27.206,14.151,27.206z"
         id="path8878" /></g></g><g
     id="g8884"
     style="fill:#ffffff" /><g
     id="g8886"
     style="fill:#ffffff" /><g
     id="g8888"
     style="fill:#ffffff" /><g
     id="g8890"
     style="fill:#ffffff" /><g
     id="g8892"
     style="fill:#ffffff" /><g
     id="g8894"
     style="fill:#ffffff" /><g
     id="g8896"
     style="fill:#ffffff" /><g
     id="g8898"
     style="fill:#ffffff" /><g
     id="g8900"
     style="fill:#ffffff" /><g
     id="g8902"
     style="fill:#ffffff" /><g
     id="g8904"
     style="fill:#ffffff" /><g
     id="g8906"
     style="fill:#ffffff" /><g
     id="g8908"
     style="fill:#ffffff" /><g
     id="g8910"
     style="fill:#ffffff" /><g
     id="g8912"
     style="fill:#ffffff" /></svg>