<?xml version="1.0" encoding="UTF-8" standalone="no"?>
<!-- Created with Inkscape (http://www.inkscape.org/) -->

<svg
   xmlns:dc="http://purl.org/dc/elements/1.1/"
   xmlns:cc="http://creativecommons.org/ns#"
   xmlns:rdf="http://www.w3.org/1999/02/22-rdf-syntax-ns#"
   xmlns:svg="http://www.w3.org/2000/svg"
   xmlns="http://www.w3.org/2000/svg"
   xmlns:sodipodi="http://sodipodi.sourceforge.net/DTD/sodipodi-0.dtd"
   xmlns:inkscape="http://www.inkscape.org/namespaces/inkscape"
   width="186.93556mm"
   height="97.041405mm"
   viewBox="0 0 186.93556 97.041405"
   version="1.1"
   id="svg8"
   sodipodi:docname="fennec.svg"
   inkscape:version="0.92.2 (5c3e80d, 2017-08-06)">
  <defs
     id="defs2">
    <clipPath
       clipPathUnits="userSpaceOnUse"
       id="clipPath4576">
      <path
         sodipodi:nodetypes="cccccccccccccccccccccscccccccccccccccccccccccc"
         inkscape:connector-curvature="0"
         d="m 16.706474,31.560865 c -3.045606,-0.0249 -4.933475,0.523407 -5.748487,0.842325 -3.1655502,1.559152 -6.6817624,6.681763 -6.6817624,6.681763 -0.734991,5.946746 2.4055379,14.165027 2.4055379,14.165027 l 14.6998775,31.805292 6.94893,5.879746 c 0,0 2.305224,1.604036 6.681763,1.604036 -0.167044,1.202711 -1.60352,1.603518 -1.60352,1.603518 0,0 0.968549,2.739528 2.137854,4.009059 0,0 9.22075,5.345409 14.967045,5.345409 6.000372,0.70871 11.640632,5.85597 11.640632,5.85597 0,0 2.538982,5.81336 6.94893,11.49284 4.610398,3.74177 15.587162,6.14898 15.587162,6.14898 0,0 5.879666,1.20262 12.828674,1.60352 l -0.05994,-16.82068 c -0.210039,-0.0316 -2.387576,-0.38163 -3.533118,-1.62264 -1.302941,-1.46998 -1.135849,-3.1073 -1.135849,-3.1073 0.768401,-2.6727 2.705989,-4.64367 3.507798,-5.41207 0.19254,-0.28882 1.104414,-0.45041 1.177706,-0.46302 L 97.622465,60.562711 C 85.952451,60.373722 79.893312,64.47565 79.893312,64.47565 c 0,0 -3.20716,0.801701 -8.285281,-1.069186 C 66.52991,61.535579 59.982057,54.519811 54.7703,51.112126 43.411346,42.492683 33.121491,37.214264 33.121491,37.214264 25.798201,33.48175 20.120735,31.806327 20.120735,31.806327 c -1.275669,-0.165365 -2.39906,-0.23717 -3.414261,-0.245462 z m 0.862479,2.167826 c 6.91391,0.05138 10.120312,3.54552 10.120312,3.54552 l 23.17688,18.161164 c 0,0 -5.607486,-0.118189 -9.723437,-1.521354 2.432153,1.96443 11.046354,3.439583 11.046354,3.439583 0,0 -3.032501,1.537404 -6.680729,1.256771 3.554685,1.683798 9.121407,1.535308 9.121407,1.535308 0,0 -4.957686,5.05137 -11.225154,5.05137 4.303037,3.461141 15.154113,0.561207 15.154113,0.561207 0,0 -3.460856,6.454873 -12.347567,6.735506 6.267471,5.986836 18.614885,8.699209 18.614885,8.699209 0,0 -2.899796,19.364075 -15.247649,15.622304 C 9.7284827,79.228944 7.6238239,41.857908 7.6238239,41.857908 c 0,0 0.608162,-7.623775 8.5126581,-8.091495 0.494032,-0.02923 0.971544,-0.04115 1.432471,-0.03772 z m 64.282382,53.197268 c 3.800986,-4.3e-5 6.882307,3.081279 6.882265,6.882267 4.2e-5,3.800988 -3.081279,6.882314 -6.882265,6.882264 -3.800988,5e-5 -6.88231,-3.081276 -6.882268,-6.882264 -4.2e-5,-3.800988 3.08128,-6.88231 6.882268,-6.882267 z"
         style="fill:#ffffff;fill-opacity:0.65591395;stroke:none;stroke-width:0.26458332px;stroke-linecap:butt;stroke-linejoin:miter;stroke-opacity:1"
         id="use4578" />
    </clipPath>
  </defs>
  <sodipodi:namedview
     id="base"
     pagecolor="#ffffff"
     bordercolor="#666666"
     borderopacity="1.0"
     inkscape:pageopacity="0.0"
     inkscape:pageshadow="2"
     inkscape:zoom="0.70710678"
     inkscape:cx="354.47804"
     inkscape:cy="31.739019"
     inkscape:document-units="mm"
     inkscape:current-layer="layer1"
     showgrid="false"
     showguides="false"
     inkscape:guide-bbox="true"
     inkscape:window-width="1366"
     inkscape:window-height="713"
     inkscape:window-x="0"
     inkscape:window-y="27"
     inkscape:window-maximized="1"
     inkscape:pagecheckerboard="true">
    <sodipodi:guide
       position="93.559228,16.964108"
       orientation="1,0"
       id="guide4650"
       inkscape:locked="false" />
  </sodipodi:namedview>
  <metadata
     id="metadata5">
    <rdf:RDF>
      <cc:Work
         rdf:about="">
        <dc:format>image/svg+xml</dc:format>
        <dc:type
           rdf:resource="http://purl.org/dc/dcmitype/StillImage" />
        <dc:title></dc:title>
      </cc:Work>
    </rdf:RDF>
  </metadata>
  <g
     inkscape:label="Layer 1"
     inkscape:groupmode="layer"
     id="layer1"
     transform="translate(-4.1647628,-31.560045)">
    <path
       style="fill:#ffffff;fill-opacity:1;stroke:none;stroke-width:0.99999994px;stroke-linecap:butt;stroke-linejoin:miter;stroke-opacity:1"
       d="m 63.142578,119.28516 c -11.510952,-0.0941 -18.646202,1.97823 -21.726562,3.18359 -11.964285,5.89286 -25.253907,25.25391 -25.253907,25.25391 -2.777918,22.47589 9.091797,53.53711 9.091797,53.53711 l 55.558594,120.20898 26.26367,22.22266 c 0,0 8.71266,6.0625 25.25391,6.0625 -0.63135,4.54568 -6.06055,6.06054 -6.06055,6.06054 0,0 3.66066,10.35412 8.08008,15.15235 0,0 34.85008,20.20312 56.56836,20.20312 22.67857,2.67859 43.99609,22.13281 43.99609,22.13281 0,0 9.59615,21.97175 26.26367,43.4375 17.42513,14.14213 58.91211,23.24024 58.91211,23.24024 0,0 22.89229,4.55705 49.15625,6.07226 26.26396,-1.51521 48.67383,-6.07226 48.67383,-6.07226 0,0 41.48698,-9.09811 58.91211,-23.24024 16.66749,-21.46575 26.26367,-43.4375 26.26367,-43.4375 0,0 21.31753,-19.45422 43.9961,-22.13281 21.71826,0 56.56836,-20.20312 56.56836,-20.20312 4.41944,-4.79823 8.08007,-15.15235 8.08007,-15.15235 0,0 -5.42921,-1.51486 -6.06054,-6.06054 16.54125,0 25.2539,-6.0625 25.2539,-6.0625 l 26.26368,-22.22266 55.55859,-120.20898 c 0,0 11.86971,-31.06122 9.0918,-53.53711 0,0 -13.28963,-19.36105 -25.25391,-25.25391 -3.08035,-1.20536 -10.21563,-3.2777 -21.72656,-3.18359 -3.83702,0.0313 -8.08287,0.30273 -12.9043,0.92773 0,0 -21.45814,6.33231 -49.13672,20.43945 0,0 -38.8908,19.94993 -81.82226,52.52735 -19.69799,12.87944 -44.44578,39.39573 -63.63868,46.46679 -19.19289,7.07107 -31.31445,4.04102 -31.31445,4.04102 0,0 -22.97682,-15.50335 -67.08398,-14.78906 -44.10714,-0.71429 -67.00782,14.78906 -67.00782,14.78906 0,0 -12.12155,3.03005 -31.31445,-4.04102 -19.19288,-7.07106 -43.94069,-33.58735 -63.63867,-46.46679 -42.93148,-32.57742 -81.82227,-52.52735 -81.82227,-52.52735 -27.678569,-14.10714 -49.136715,-20.43945 -49.136715,-20.43945 -4.821426,-0.625 -9.067317,-0.89639 -12.904297,-0.92773 z m 3.259766,8.19336 c 26.131312,0.19419 38.249996,13.40039 38.249996,13.40039 L 192.25,209.51953 c 0,0 -21.19365,-0.4467 -36.75,-5.75 9.19239,7.42462 41.75,13 41.75,13 0,0 -11.46142,5.81066 -25.25,4.75 13.43503,6.36396 34.47461,5.80274 34.47461,5.80274 0,0 -18.73771,19.09179 -42.42578,19.09179 16.26345,13.08148 57.27539,2.1211 57.27539,2.1211 0,0 -13.0804,24.39637 -46.66797,25.45703 23.68808,22.62741 70.35547,32.8789 70.35547,32.8789 0,0 -10.95986,73.18705 -57.62891,59.04493 C 36.769077,299.44798 28.814453,158.20312 28.814453,158.20312 c 0,0 2.298568,-28.81427 32.173828,-30.58203 1.867208,-0.11047 3.671976,-0.15554 5.414063,-0.14257 z m 605.205076,0 c 1.74206,-0.013 3.54686,0.0321 5.41406,0.14257 29.87524,1.76776 32.17383,30.58204 32.17383,30.58203 0,0 -7.9546,141.24486 -158.56836,207.7129 -46.66904,14.14212 -57.6289,-59.04493 -57.6289,-59.04493 0,0 46.66739,-10.25149 70.35547,-32.8789 -33.58757,-1.06066 -46.66797,-25.45703 -46.66797,-25.45703 0,0 41.01197,10.96038 57.27539,-2.1211 -23.68804,0 -42.42578,-19.09179 -42.42578,-19.09179 0,0 21.03956,0.56122 34.47461,-5.80274 -13.78859,1.06066 -25.25,-4.75 -25.25,-4.75 0,0 32.55762,-5.57538 41.75,-13 -15.55635,5.3033 -36.75,5.75 -36.75,5.75 l 87.59765,-68.64062 c 0,0 12.11869,-13.2062 38.25,-13.40039 z M 309.35938,328.53906 c 14.36592,-1.6e-4 26.01187,11.64578 26.01171,26.01172 1.6e-4,14.36594 -11.64579,26.01191 -26.01171,26.01172 -14.36594,1.9e-4 -26.01188,-11.64578 -26.01172,-26.01172 -1.6e-4,-14.36594 11.64578,-26.01188 26.01172,-26.01172 z m 119.29101,0 c 14.36591,-1.6e-4 26.01187,11.64578 26.01172,26.01172 1.5e-4,14.36594 -11.64581,26.01191 -26.01172,26.01172 -14.36595,1.9e-4 -26.01187,-11.64578 -26.01172,-26.01172 -1.5e-4,-14.36594 11.64577,-26.01188 26.01172,-26.01172 z m -59.41797,53.80078 c 0.27701,0.0477 4.0887,0.70332 4.81641,1.79493 3.03046,2.90418 10.35362,10.35353 13.25781,20.45507 0,0 0.63153,6.18831 -4.29297,11.74414 -4.3296,4.69044 -12.47247,5.61291 -13.66406,5.60157 -1.23579,0.034 -9.47117,-1.41895 -13.80078,-6.10938 -4.9245,-5.55583 -4.8457,-11.72265 -4.84571,-11.72265 2.9042,-10.10155 10.22736,-17.55089 13.25782,-20.45508 0.72771,-1.09161 5.27148,-1.3086 5.27148,-1.3086 z m -49.79687,34.66407 c -10.32572,19.42786 -4.87372,35.11779 24.74804,33.23437 9.77381,-1.67206 11.40041,-16.5293 25.16602,-16.5293 13.7656,0 15.39415,14.85724 25.16797,16.5293 29.62174,1.88342 35.07379,-13.80651 24.74804,-33.23437 10.1805,13.49839 12.7343,38.13781 -27.2246,35.88476 -8.49782,-0.85874 -10.99903,-15.99805 -22.69141,-15.99805 -11.69239,0 -14.19356,15.13931 -22.69141,15.99805 -39.95889,2.25305 -37.40314,-22.38637 -27.22265,-35.88476 z"
       transform="scale(0.26458333)"
       id="use4564"
       inkscape:connector-curvature="0" />
    <circle
       style="fill:#ffffff;fill-opacity:1;stroke:none;stroke-width:0.26458332;stroke-opacity:1"
       id="path4590"
       cx="84.572174"
       cy="92.32589"
       r="1.6063988" />
    <circle
       style="fill:#ffffff;fill-opacity:1;stroke:none;stroke-width:0.26458332;stroke-opacity:1"
       id="path4590-6"
       cx="116.52951"
       cy="92.271538"
       r="1.6063988" />
  </g>
</svg>
